<svg width="188" height="31" viewBox="0 0 188 31" fill="none" xmlns="http://www.w3.org/2000/svg">
<path d="M7.06214 30L9.22124 23.3665H19.7184L21.8775 30H28.4684L18.44 0.90909H10.5138L0.471236 30H7.06214ZM10.7837 18.5653L14.3633 7.55682H14.5906L18.1701 18.5653H10.7837ZM31.9698 30H37.9357V26.5057H38.2056C39.0437 28.3239 40.8761 30.3551 44.3988 30.3551C49.3704 30.3551 53.2482 26.4205 53.2482 19.1193C53.2482 11.6193 49.1999 7.89773 44.413 7.89773C40.7624 7.89773 39.0153 10.071 38.2056 11.8466H38.021V0.90909H31.9698V30ZM37.8931 19.0909C37.8931 15.1989 39.5408 12.7131 42.4812 12.7131C45.4783 12.7131 47.0692 15.3125 47.0692 19.0909C47.0692 22.8977 45.4499 25.5398 42.4812 25.5398C39.5692 25.5398 37.8931 22.983 37.8931 19.0909ZM67.1438 30.4261C73.7631 30.4261 77.8825 25.8949 77.8825 19.1761C77.8825 12.4148 73.7631 7.89773 67.1438 7.89773C60.5245 7.89773 56.4052 12.4148 56.4052 19.1761C56.4052 25.8949 60.5245 30.4261 67.1438 30.4261ZM67.1722 25.7386C64.1183 25.7386 62.5558 22.9403 62.5558 19.1335C62.5558 15.3267 64.1183 12.5142 67.1722 12.5142C70.1694 12.5142 71.7319 15.3267 71.7319 19.1335C71.7319 22.9403 70.1694 25.7386 67.1722 25.7386ZM95.8086 20.7102C95.8228 23.6364 93.82 25.1705 91.6467 25.1705C89.3597 25.1705 87.8825 23.5653 87.8683 20.9943V8.18182H81.8171V22.0739C81.8313 27.1733 84.8143 30.2841 89.2035 30.2841C92.4847 30.2841 94.8427 28.5938 95.8228 26.0369H96.0501V30H101.86V8.18182H95.8086V20.7102ZM118.305 8.18182H114.2V2.95455H108.149V8.18182H105.166V12.7273H108.149V24.0909C108.12 28.3665 111.032 30.483 115.422 30.2983C116.984 30.2415 118.092 29.929 118.703 29.7301L117.751 25.2273C117.453 25.2841 116.814 25.4261 116.245 25.4261C115.038 25.4261 114.2 24.9716 114.2 23.2955V12.7273H118.305V8.18182ZM131.505 30H137.556V16.9034C137.556 14.4886 139.09 12.8835 141.107 12.8835C143.096 12.8835 144.431 14.2472 144.431 16.392V30H150.297V16.6761C150.297 14.4176 151.59 12.8835 153.792 12.8835C155.723 12.8835 157.172 14.0909 157.172 16.5199V30H163.209V15.3267C163.209 10.5966 160.397 7.89773 156.334 7.89773C153.138 7.89773 150.652 9.53125 149.757 12.0312H149.53C148.834 9.50284 146.604 7.89773 143.607 7.89773C140.667 7.89773 138.436 9.46023 137.527 12.0312H137.272V8.18182H131.505V30ZM177.932 30.4261C183.33 30.4261 186.966 27.7983 187.819 23.75L182.222 23.3807C181.611 25.0426 180.049 25.9091 178.032 25.9091C175.006 25.9091 173.088 23.9062 173.088 20.6534V20.6392H187.946V18.9773C187.946 11.5625 183.458 7.89773 177.691 7.89773C171.27 7.89773 167.108 12.4574 167.108 19.1903C167.108 26.108 171.213 30.4261 177.932 30.4261ZM173.088 16.8892C173.216 14.4034 175.105 12.4148 177.79 12.4148C180.418 12.4148 182.236 14.2898 182.25 16.8892H173.088Z" fill="#172B4D"/>
</svg>
