<svg width="122" height="48" viewBox="0 0 122 48" fill="none" xmlns="http://www.w3.org/2000/svg">
<rect width="122" height="48" rx="4" fill="#36B37F"/>
<path d="M20.2996 20.8842C20.2352 20.3127 19.9696 19.87 19.5027 19.5561C19.0359 19.2382 18.4483 19.0792 17.74 19.0792C17.2328 19.0792 16.7942 19.1597 16.4239 19.3207C16.0536 19.4776 15.7659 19.695 15.5606 19.9727C15.3594 20.2463 15.2588 20.5582 15.2588 20.9084C15.2588 21.2022 15.3272 21.4557 15.464 21.669C15.6049 21.8823 15.788 22.0614 16.0134 22.2063C16.2428 22.3472 16.4883 22.4659 16.7499 22.5625C17.0115 22.6551 17.263 22.7315 17.5045 22.7919L18.7119 23.1058C19.1063 23.2024 19.5108 23.3332 19.9253 23.4982C20.3399 23.6632 20.7242 23.8806 21.0784 24.1502C21.4325 24.4199 21.7183 24.7539 21.9356 25.1523C22.157 25.5508 22.2677 26.0277 22.2677 26.5831C22.2677 27.2834 22.0865 27.9052 21.7243 28.4485C21.3661 28.9918 20.8449 29.4205 20.1608 29.7344C19.4806 30.0483 18.6576 30.2053 17.6917 30.2053C16.766 30.2053 15.9651 30.0584 15.289 29.7646C14.6128 29.4708 14.0836 29.0542 13.7012 28.5149C13.3189 27.9716 13.1076 27.3277 13.0674 26.5831H14.9388C14.975 27.0298 15.1199 27.4021 15.3735 27.6999C15.631 27.9937 15.9591 28.2131 16.3575 28.358C16.76 28.4988 17.2007 28.5692 17.6796 28.5692C18.2068 28.5692 18.6757 28.4867 19.0862 28.3217C19.5007 28.1527 19.8267 27.9193 20.0642 27.6214C20.3016 27.3196 20.4203 26.9674 20.4203 26.565C20.4203 26.1987 20.3157 25.8989 20.1064 25.6655C19.9012 25.4321 19.6215 25.2389 19.2673 25.0859C18.9172 24.933 18.5207 24.7982 18.078 24.6815L16.6171 24.283C15.627 24.0134 14.8422 23.617 14.2627 23.0938C13.6872 22.5705 13.3994 21.8783 13.3994 21.017C13.3994 20.3047 13.5926 19.6829 13.9789 19.1516C14.3653 18.6204 14.8885 18.2079 15.5485 17.9141C16.2086 17.6162 16.9531 17.4673 17.7822 17.4673C18.6193 17.4673 19.3578 17.6142 19.9978 17.908C20.6417 18.2018 21.1488 18.6063 21.5191 19.1214C21.8893 19.6326 22.0825 20.2202 22.0986 20.8842H20.2996ZM28.8583 30.1871C27.9448 30.1871 27.1579 29.992 26.4979 29.6016C25.8419 29.2071 25.3348 28.6538 24.9766 27.9414C24.6224 27.225 24.4454 26.3859 24.4454 25.424C24.4454 24.4742 24.6224 23.6371 24.9766 22.9126C25.3348 22.1882 25.8338 21.6228 26.4738 21.2163C27.1177 20.8098 27.8703 20.6065 28.7316 20.6065C29.2548 20.6065 29.7619 20.6931 30.2529 20.8661C30.7439 21.0392 31.1846 21.3108 31.575 21.6811C31.9654 22.0514 32.2732 22.5323 32.4986 23.1239C32.724 23.7115 32.8367 24.4259 32.8367 25.267V25.907H25.4656V24.5547H31.0679C31.0679 24.0798 30.9713 23.6592 30.7781 23.293C30.5849 22.9227 30.3133 22.6309 29.9631 22.4176C29.617 22.2043 29.2105 22.0977 28.7436 22.0977C28.2365 22.0977 27.7938 22.2224 27.4155 22.4719C27.0412 22.7174 26.7515 23.0394 26.5462 23.4379C26.345 23.8323 26.2444 24.2609 26.2444 24.7237V25.7802C26.2444 26.4 26.353 26.9272 26.5704 27.3619C26.7917 27.7965 27.0996 28.1286 27.494 28.358C27.8884 28.5833 28.3492 28.696 28.8765 28.696C29.2186 28.696 29.5305 28.6477 29.8122 28.5511C30.0939 28.4505 30.3374 28.3016 30.5427 28.1044C30.7479 27.9072 30.9049 27.6637 31.0135 27.3739L32.722 27.6818C32.5851 28.1849 32.3396 28.6256 31.9855 29.0039C31.6353 29.3782 31.1946 29.67 30.6634 29.8793C30.1362 30.0845 29.5345 30.1871 28.8583 30.1871ZM39.3459 30.1871C38.4323 30.1871 37.6455 29.992 36.9854 29.6016C36.3294 29.2071 35.8223 28.6538 35.4641 27.9414C35.11 27.225 34.9329 26.3859 34.9329 25.424C34.9329 24.4742 35.11 23.6371 35.4641 22.9126C35.8223 22.1882 36.3214 21.6228 36.9613 21.2163C37.6052 20.8098 38.3578 20.6065 39.2191 20.6065C39.7423 20.6065 40.2494 20.6931 40.7404 20.8661C41.2314 21.0392 41.6721 21.3108 42.0625 21.6811C42.4529 22.0514 42.7608 22.5323 42.9862 23.1239C43.2115 23.7115 43.3242 24.4259 43.3242 25.267V25.907H35.9531V24.5547H41.5554C41.5554 24.0798 41.4588 23.6592 41.2656 23.293C41.0725 22.9227 40.8008 22.6309 40.4506 22.4176C40.1045 22.2043 39.698 22.0977 39.2312 22.0977C38.7241 22.0977 38.2814 22.2224 37.9031 22.4719C37.5288 22.7174 37.239 23.0394 37.0337 23.4379C36.8325 23.8323 36.7319 24.2609 36.7319 24.7237V25.7802C36.7319 26.4 36.8406 26.9272 37.0579 27.3619C37.2792 27.7965 37.5871 28.1286 37.9815 28.358C38.376 28.5833 38.8368 28.696 39.364 28.696C39.7061 28.696 40.018 28.6477 40.2997 28.5511C40.5814 28.4505 40.8249 28.3016 41.0302 28.1044C41.2354 27.9072 41.3924 27.6637 41.5011 27.3739L43.2095 27.6818C43.0727 28.1849 42.8272 28.6256 42.473 29.0039C42.1229 29.3782 41.6822 29.67 41.1509 29.8793C40.6237 30.0845 40.022 30.1871 39.3459 30.1871ZM50.846 33.4773V20.7273H52.6088V22.2305H52.7597C52.8644 22.0373 53.0153 21.8139 53.2125 21.5604C53.4097 21.3068 53.6834 21.0855 54.0335 20.8963C54.3836 20.7031 54.8465 20.6065 55.422 20.6065C56.1706 20.6065 56.8387 20.7957 57.4263 21.174C58.0139 21.5523 58.4747 22.0977 58.8087 22.81C59.1468 23.5224 59.3158 24.3796 59.3158 25.3817C59.3158 26.3839 59.1488 27.2431 58.8148 27.9595C58.4807 28.6719 58.0219 29.2212 57.4383 29.6076C56.8548 29.9899 56.1887 30.1811 55.4401 30.1811C54.8767 30.1811 54.4158 30.0865 54.0577 29.8974C53.7035 29.7082 53.4258 29.4869 53.2246 29.2333C53.0233 28.9798 52.8684 28.7544 52.7597 28.5572H52.651V33.4773H50.846ZM52.6148 25.3636C52.6148 26.0156 52.7094 26.5871 52.8986 27.0781C53.0877 27.5691 53.3614 27.9535 53.7196 28.2312C54.0778 28.5049 54.5165 28.6417 55.0356 28.6417C55.5749 28.6417 56.0257 28.4988 56.3879 28.2131C56.7501 27.9233 57.0238 27.5309 57.2089 27.0359C57.3981 26.5408 57.4927 25.9834 57.4927 25.3636C57.4927 24.7519 57.4001 24.2025 57.215 23.7156C57.0339 23.2286 56.7602 22.8442 56.3939 22.5625C56.0317 22.2808 55.579 22.1399 55.0356 22.1399C54.5124 22.1399 54.0697 22.2747 53.7075 22.5444C53.3493 22.814 53.0777 23.1903 52.8925 23.6733C52.7074 24.1562 52.6148 24.7197 52.6148 25.3636ZM61.8482 30V20.7273H63.5929V22.2003H63.6895C63.8585 21.7012 64.1563 21.3088 64.5829 21.0231C65.0136 20.7333 65.5005 20.5884 66.0439 20.5884C66.1565 20.5884 66.2894 20.5924 66.4423 20.6005C66.5993 20.6085 66.722 20.6186 66.8105 20.6307V22.3572C66.7381 22.3371 66.6093 22.315 66.4242 22.2908C66.2391 22.2627 66.0539 22.2486 65.8688 22.2486C65.4422 22.2486 65.0618 22.3391 64.7278 22.5202C64.3978 22.6973 64.1362 22.9448 63.943 23.2628C63.7498 23.5767 63.6532 23.9349 63.6532 24.3374V30H61.8482ZM72.4565 30.1871C71.5872 30.1871 70.8285 29.9879 70.1805 29.5895C69.5326 29.1911 69.0295 28.6336 68.6713 27.9173C68.3131 27.2009 68.134 26.3638 68.134 25.4059C68.134 24.444 68.3131 23.6029 68.6713 22.8825C69.0295 22.162 69.5326 21.6026 70.1805 21.2042C70.8285 20.8058 71.5872 20.6065 72.4565 20.6065C73.3258 20.6065 74.0844 20.8058 74.7324 21.2042C75.3804 21.6026 75.8834 22.162 76.2416 22.8825C76.5998 23.6029 76.7789 24.444 76.7789 25.4059C76.7789 26.3638 76.5998 27.2009 76.2416 27.9173C75.8834 28.6336 75.3804 29.1911 74.7324 29.5895C74.0844 29.9879 73.3258 30.1871 72.4565 30.1871ZM72.4625 28.6719C73.026 28.6719 73.4928 28.523 73.8631 28.2251C74.2333 27.9273 74.507 27.5309 74.6841 27.0359C74.8652 26.5408 74.9558 25.9955 74.9558 25.3999C74.9558 24.8082 74.8652 24.2649 74.6841 23.7699C74.507 23.2708 74.2333 22.8704 73.8631 22.5685C73.4928 22.2667 73.026 22.1158 72.4625 22.1158C71.895 22.1158 71.4242 22.2667 71.0499 22.5685C70.6796 22.8704 70.4039 23.2708 70.2228 23.7699C70.0457 24.2649 69.9572 24.8082 69.9572 25.3999C69.9572 25.9955 70.0457 26.5408 70.2228 27.0359C70.4039 27.5309 70.6796 27.9273 71.0499 28.2251C71.4242 28.523 71.895 28.6719 72.4625 28.6719ZM79.3037 20.7273H81.1088V30.6037C81.1088 31.2235 80.9961 31.7467 80.7707 32.1733C80.5494 32.5999 80.2193 32.9239 79.7807 33.1452C79.346 33.3666 78.8087 33.4773 78.1688 33.4773C78.1044 33.4773 78.044 33.4773 77.9877 33.4773C77.9273 33.4773 77.8649 33.4753 77.8005 33.4712V31.9197C77.8569 31.9197 77.9072 31.9197 77.9515 31.9197C77.9917 31.9197 78.038 31.9197 78.0903 31.9197C78.5169 31.9197 78.8248 31.805 79.014 31.5756C79.2071 31.3503 79.3037 31.0223 79.3037 30.5916V20.7273ZM80.1972 19.2965C79.8833 19.2965 79.6136 19.1919 79.3883 18.9826C79.1669 18.7693 79.0562 18.5157 79.0562 18.2219C79.0562 17.9241 79.1669 17.6706 79.3883 17.4613C79.6136 17.248 79.8833 17.1413 80.1972 17.1413C80.5111 17.1413 80.7788 17.248 81.0001 17.4613C81.2255 17.6706 81.3382 17.9241 81.3382 18.2219C81.3382 18.5157 81.2255 18.7693 81.0001 18.9826C80.7788 19.1919 80.5111 19.2965 80.1972 19.2965ZM88.0436 30.1871C87.13 30.1871 86.3432 29.992 85.6831 29.6016C85.0271 29.2071 84.52 28.6538 84.1618 27.9414C83.8077 27.225 83.6306 26.3859 83.6306 25.424C83.6306 24.4742 83.8077 23.6371 84.1618 22.9126C84.52 22.1882 85.0191 21.6228 85.659 21.2163C86.3029 20.8098 87.0555 20.6065 87.9168 20.6065C88.44 20.6065 88.9471 20.6931 89.4381 20.8661C89.9291 21.0392 90.3698 21.3108 90.7602 21.6811C91.1506 22.0514 91.4585 22.5323 91.6839 23.1239C91.9092 23.7115 92.0219 24.4259 92.0219 25.267V25.907H84.6508V24.5547H90.2531C90.2531 24.0798 90.1565 23.6592 89.9633 23.293C89.7701 22.9227 89.4985 22.6309 89.1483 22.4176C88.8022 22.2043 88.3957 22.0977 87.9289 22.0977C87.4218 22.0977 86.9791 22.2224 86.6008 22.4719C86.2265 22.7174 85.9367 23.0394 85.7314 23.4379C85.5302 23.8323 85.4296 24.2609 85.4296 24.7237V25.7802C85.4296 26.4 85.5383 26.9272 85.7556 27.3619C85.9769 27.7965 86.2848 28.1286 86.6792 28.358C87.0736 28.5833 87.5345 28.696 88.0617 28.696C88.4038 28.696 88.7157 28.6477 88.9974 28.5511C89.2791 28.4505 89.5226 28.3016 89.7279 28.1044C89.9331 27.9072 90.0901 27.6637 90.1988 27.3739L91.9072 27.6818C91.7704 28.1849 91.5249 28.6256 91.1707 29.0039C90.8206 29.3782 90.3799 29.67 89.8486 29.8793C89.3214 30.0845 88.7197 30.1871 88.0436 30.1871ZM98.4406 30.1871C97.5431 30.1871 96.7703 29.9839 96.1224 29.5774C95.4784 29.1669 94.9834 28.6014 94.6373 27.881C94.2912 27.1606 94.1181 26.3356 94.1181 25.4059C94.1181 24.4641 94.2952 23.633 94.6494 22.9126C95.0035 22.1882 95.5026 21.6228 96.1465 21.2163C96.7905 20.8098 97.5491 20.6065 98.4225 20.6065C99.1268 20.6065 99.7546 20.7373 100.306 20.9989C100.857 21.2565 101.302 21.6187 101.64 22.0856C101.982 22.5524 102.185 23.0978 102.25 23.7216H100.493C100.397 23.2869 100.175 22.9126 99.8291 22.5987C99.487 22.2848 99.0282 22.1278 98.4526 22.1278C97.9496 22.1278 97.5089 22.2607 97.1305 22.5263C96.7563 22.7879 96.4645 23.1622 96.2552 23.6491C96.0459 24.1321 95.9413 24.7036 95.9413 25.3636C95.9413 26.0398 96.0439 26.6233 96.2492 27.1143C96.4544 27.6054 96.7442 27.9857 97.1185 28.2553C97.4968 28.525 97.9415 28.6598 98.4526 28.6598C98.7947 28.6598 99.1046 28.5974 99.3823 28.4727C99.664 28.3439 99.8995 28.1607 100.089 27.9233C100.282 27.6858 100.417 27.4001 100.493 27.0661H102.25C102.185 27.6657 101.99 28.201 101.664 28.6719C101.338 29.1428 100.902 29.513 100.354 29.7827C99.8109 30.0523 99.173 30.1871 98.4406 30.1871ZM109.019 20.7273V22.1761H103.954V20.7273H109.019ZM105.312 18.5057H107.117V27.2773C107.117 27.6275 107.169 27.8911 107.274 28.0682C107.379 28.2412 107.513 28.36 107.678 28.4244C107.847 28.4847 108.031 28.5149 108.228 28.5149C108.373 28.5149 108.499 28.5049 108.608 28.4847C108.717 28.4646 108.801 28.4485 108.862 28.4364L109.188 29.9276C109.083 29.9678 108.934 30.008 108.741 30.0483C108.548 30.0926 108.306 30.1167 108.017 30.1207C107.542 30.1288 107.099 30.0443 106.688 29.8672C106.278 29.6901 105.946 29.4164 105.692 29.0462C105.439 28.6759 105.312 28.2111 105.312 27.6516V18.5057Z" fill="white"/>
</svg>
