<svg width="129" height="48" viewBox="0 0 129 48" fill="none" xmlns="http://www.w3.org/2000/svg">
<rect width="129" height="48" rx="4" fill="#36B37F"/>
<path d="M21.981 21.5423H23.8948C23.4782 19.1335 21.4196 17.4673 18.7513 17.4673C15.5517 17.4673 13.2154 19.8761 13.2154 23.8242C13.2154 27.7362 15.4853 30.169 18.8358 30.169C21.8362 30.169 23.9793 28.201 23.9793 25.0799V23.6733H19.1195V25.2127H22.1742C22.132 27.2049 20.8159 28.4666 18.8358 28.4666C16.6565 28.4666 15.0688 26.8185 15.0688 23.8121C15.0688 20.8178 16.6685 19.1697 18.7634 19.1697C20.4054 19.1697 21.5162 20.0753 21.981 21.5423ZM30.7088 30.1871C32.7312 30.1871 34.1619 29.1911 34.5725 27.6818L32.864 27.3739C32.538 28.2493 31.7532 28.696 30.7269 28.696C29.1815 28.696 28.1431 27.6939 28.0948 25.907H34.6872V25.267C34.6872 21.9165 32.6829 20.6065 30.582 20.6065C27.9982 20.6065 26.2958 22.5746 26.2958 25.424C26.2958 28.3036 27.9741 30.1871 30.7088 30.1871ZM28.1009 24.5547C28.1733 23.2386 29.1271 22.0977 30.5941 22.0977C31.9947 22.0977 32.9123 23.136 32.9183 24.5547H28.1009ZM41.5284 20.7273H39.6268V18.5057H37.8217V20.7273H36.4634V22.1761H37.8217V27.6516C37.8157 29.3359 39.1015 30.1509 40.5263 30.1207C41.0998 30.1147 41.4861 30.006 41.6974 29.9276L41.3714 28.4364C41.2507 28.4606 41.0273 28.5149 40.7375 28.5149C40.152 28.5149 39.6268 28.3217 39.6268 27.2773V22.1761H41.5284V20.7273ZM49.0441 30H50.8492V20.7273H49.0441V30ZM49.9557 19.2965C50.5775 19.2965 51.0967 18.8136 51.0967 18.2219C51.0967 17.6303 50.5775 17.1413 49.9557 17.1413C49.3279 17.1413 48.8147 17.6303 48.8147 18.2219C48.8147 18.8136 49.3279 19.2965 49.9557 19.2965ZM55.5926 24.4943C55.5926 23.0153 56.4981 22.1701 57.7538 22.1701C58.9793 22.1701 59.7218 22.973 59.7218 24.3192V30H61.5269V24.1019C61.5269 21.8079 60.2652 20.6065 58.3696 20.6065C56.975 20.6065 56.0634 21.2525 55.6348 22.2365H55.5201V20.7273H53.7875V30H55.5926V24.4943ZM73.7952 20.7273H71.8936V18.5057H70.0885V20.7273H68.7302V22.1761H70.0885V27.6516C70.0825 29.3359 71.3683 30.1509 72.7931 30.1207C73.3666 30.1147 73.7529 30.006 73.9642 29.9276L73.6382 28.4364C73.5175 28.4606 73.2941 28.5149 73.0043 28.5149C72.4188 28.5149 71.8936 28.3217 71.8936 27.2773V22.1761H73.7952V20.7273ZM80.1082 30.1871C82.7222 30.1871 84.4306 28.2734 84.4306 25.4059C84.4306 22.5202 82.7222 20.6065 80.1082 20.6065C77.4942 20.6065 75.7857 22.5202 75.7857 25.4059C75.7857 28.2734 77.4942 30.1871 80.1082 30.1871ZM80.1142 28.6719C78.4058 28.6719 77.6089 27.1808 77.6089 25.3999C77.6089 23.625 78.4058 22.1158 80.1142 22.1158C81.8106 22.1158 82.6075 23.625 82.6075 25.3999C82.6075 27.1808 81.8106 28.6719 80.1142 28.6719ZM92.8294 26.1545C92.8354 27.7301 91.6643 28.4787 90.6501 28.4787C89.5332 28.4787 88.7605 27.6697 88.7605 26.408V20.7273H86.9555V26.6254C86.9555 28.9254 88.2172 30.1207 89.9981 30.1207C91.3926 30.1207 92.3404 29.3842 92.769 28.3942H92.8656V30H94.6405V20.7273H92.8294V26.1545ZM101.482 30.1871C103.673 30.1871 105.092 28.8711 105.291 27.0661H103.534C103.305 28.0682 102.526 28.6598 101.494 28.6598C99.9664 28.6598 98.9824 27.386 98.9824 25.3636C98.9824 23.3775 99.9845 22.1278 101.494 22.1278C102.641 22.1278 103.341 22.8523 103.534 23.7216H105.291C105.098 21.8501 103.57 20.6065 101.464 20.6065C98.8496 20.6065 97.1593 22.5746 97.1593 25.4059C97.1593 28.201 98.7892 30.1871 101.482 30.1871ZM109.536 24.4943C109.536 23.0153 110.472 22.1701 111.758 22.1701C113.002 22.1701 113.744 22.9609 113.744 24.3192V30H115.549V24.1019C115.549 21.7898 114.281 20.6065 112.374 20.6065C110.931 20.6065 110.062 21.2344 109.627 22.2365H109.512V17.6364H107.731V30H109.536V24.4943Z" fill="white"/>
</svg>
