<svg width="153" height="48" viewBox="0 0 153 48" fill="none" xmlns="http://www.w3.org/2000/svg">
<rect width="153" height="48" rx="4" fill="#36B37F"/>
<path d="M21.7895 21.5423C21.6728 21.176 21.5158 20.848 21.3186 20.5582C21.1255 20.2644 20.894 20.0149 20.6244 19.8097C20.3547 19.6004 20.0469 19.4414 19.7007 19.3327C19.3587 19.2241 18.9823 19.1697 18.5718 19.1697C17.8756 19.1697 17.2477 19.3488 16.6883 19.707C16.1289 20.0652 15.6862 20.5904 15.3602 21.2827C15.0382 21.9709 14.8772 22.814 14.8772 23.8121C14.8772 24.8143 15.0402 25.6615 15.3662 26.3537C15.6922 27.0459 16.139 27.5711 16.7064 27.9293C17.2739 28.2875 17.9198 28.4666 18.6443 28.4666C19.3164 28.4666 19.902 28.3298 20.401 28.0561C20.9041 27.7824 21.2925 27.3961 21.5662 26.897C21.8439 26.3939 21.9827 25.8023 21.9827 25.1222L22.4657 25.2127H18.928V23.6733H23.7877V25.0799C23.7877 26.1183 23.5664 27.0198 23.1237 27.7844C22.685 28.5451 22.0773 29.1327 21.3005 29.5472C20.5278 29.9618 19.6424 30.169 18.6443 30.169C17.5254 30.169 16.5434 29.9115 15.6983 29.3963C14.8571 28.8812 14.2011 28.1507 13.7302 27.2049C13.2593 26.2551 13.0239 25.1282 13.0239 23.8242C13.0239 22.8382 13.1607 21.9528 13.4344 21.168C13.7081 20.3832 14.0924 19.7171 14.5875 19.1697C15.0865 18.6184 15.6721 18.1978 16.3442 17.908C17.0203 17.6142 17.7589 17.4673 18.5598 17.4673C19.2279 17.4673 19.8497 17.5659 20.4252 17.7631C21.0047 17.9603 21.5199 18.2401 21.9706 18.6023C22.4254 18.9645 22.8017 19.3951 23.0995 19.8942C23.3974 20.3892 23.5986 20.9386 23.7032 21.5423H21.7895ZM30.5173 30.1871C29.6037 30.1871 28.8169 29.992 28.1569 29.6016C27.5008 29.2071 26.9937 28.6538 26.6355 27.9414C26.2814 27.225 26.1043 26.3859 26.1043 25.424C26.1043 24.4742 26.2814 23.6371 26.6355 22.9126C26.9937 22.1882 27.4928 21.6228 28.1327 21.2163C28.7766 20.8098 29.5293 20.6065 30.3905 20.6065C30.9137 20.6065 31.4208 20.6931 31.9118 20.8661C32.4028 21.0392 32.8435 21.3108 33.2339 21.6811C33.6243 22.0514 33.9322 22.5323 34.1576 23.1239C34.3829 23.7115 34.4956 24.4259 34.4956 25.267V25.907H27.1245V24.5547H32.7268C32.7268 24.0798 32.6302 23.6592 32.437 23.293C32.2439 22.9227 31.9722 22.6309 31.6221 22.4176C31.2759 22.2043 30.8695 22.0977 30.4026 22.0977C29.8955 22.0977 29.4528 22.2224 29.0745 22.4719C28.7002 22.7174 28.4104 23.0394 28.2052 23.4379C28.0039 23.8323 27.9033 24.2609 27.9033 24.7237V25.7802C27.9033 26.4 28.012 26.9272 28.2293 27.3619C28.4507 27.7965 28.7585 28.1286 29.153 28.358C29.5474 28.5833 30.0082 28.696 30.5354 28.696C30.8775 28.696 31.1894 28.6477 31.4711 28.5511C31.7529 28.4505 31.9963 28.3016 32.2016 28.1044C32.4069 27.9072 32.5638 27.6637 32.6725 27.3739L34.3809 27.6818C34.2441 28.1849 33.9986 28.6256 33.6444 29.0039C33.2943 29.3782 32.8536 29.67 32.3223 29.8793C31.7951 30.0845 31.1934 30.1871 30.5173 30.1871ZM41.3369 20.7273V22.1761H36.2719V20.7273H41.3369ZM37.6302 18.5057H39.4352V27.2773C39.4352 27.6275 39.4876 27.8911 39.5922 28.0682C39.6968 28.2412 39.8317 28.36 39.9967 28.4244C40.1657 28.4847 40.3488 28.5149 40.546 28.5149C40.6909 28.5149 40.8177 28.5049 40.9264 28.4847C41.035 28.4646 41.1195 28.4485 41.1799 28.4364L41.5059 29.9276C41.4013 29.9678 41.2524 30.008 41.0592 30.0483C40.866 30.0926 40.6245 30.1167 40.3347 30.1207C39.8598 30.1288 39.4171 30.0443 39.0066 29.8672C38.5961 29.6901 38.2641 29.4164 38.0105 29.0462C37.757 28.6759 37.6302 28.2111 37.6302 27.6516V18.5057ZM48.8526 30V20.7273H50.5852V22.2365H50.6999C50.8931 21.7254 51.209 21.3269 51.6477 21.0412C52.0864 20.7514 52.6116 20.6065 53.2233 20.6065C53.8431 20.6065 54.3623 20.7514 54.7809 21.0412C55.2035 21.331 55.5154 21.7294 55.7166 22.2365H55.8132C56.0345 21.7415 56.3867 21.3471 56.8697 21.0533C57.3526 20.7554 57.9281 20.6065 58.5962 20.6065C59.4374 20.6065 60.1236 20.8701 60.6548 21.3974C61.1901 21.9246 61.4577 22.7195 61.4577 23.782V30H59.6527V23.951C59.6527 23.3232 59.4816 22.8684 59.1395 22.5866C58.7974 22.3049 58.3889 22.1641 57.914 22.1641C57.3264 22.1641 56.8697 22.3452 56.5437 22.7074C56.2177 23.0656 56.0547 23.5264 56.0547 24.0898V30H54.2557V23.8363C54.2557 23.3332 54.0987 22.9287 53.7848 22.6229C53.4709 22.317 53.0624 22.1641 52.5593 22.1641C52.2172 22.1641 51.9013 22.2546 51.6115 22.4357C51.3257 22.6128 51.0943 22.8603 50.9172 23.1783C50.7442 23.4962 50.6576 23.8645 50.6576 24.283V30H48.8526ZM65.196 33.4773C64.9263 33.4773 64.6808 33.4551 64.4595 33.4109C64.2381 33.3706 64.0731 33.3263 63.9644 33.2781L64.3991 31.799C64.7291 31.8875 65.0229 31.9258 65.2805 31.9137C65.5381 31.9016 65.7655 31.805 65.9627 31.6239C66.1639 31.4428 66.341 31.147 66.4939 30.7365L66.7173 30.1207L63.3245 20.7273H65.2563L67.6047 27.9233H67.7013L70.0497 20.7273H71.9875L68.1661 31.2376C67.9891 31.7205 67.7637 32.129 67.49 32.4631C67.2163 32.8011 66.8903 33.0547 66.512 33.2237C66.1337 33.3928 65.695 33.4773 65.196 33.4773ZM79.2029 30V20.7273H80.9476V22.2003H81.0442C81.2132 21.7012 81.511 21.3088 81.9376 21.0231C82.3683 20.7333 82.8553 20.5884 83.3986 20.5884C83.5113 20.5884 83.6441 20.5924 83.797 20.6005C83.954 20.6085 84.0767 20.6186 84.1653 20.6307V22.3572C84.0928 22.3371 83.964 22.315 83.7789 22.2908C83.5938 22.2627 83.4086 22.2486 83.2235 22.2486C82.7969 22.2486 82.4166 22.3391 82.0825 22.5202C81.7525 22.6973 81.4909 22.9448 81.2977 23.2628C81.1046 23.5767 81.008 23.9349 81.008 24.3374V30H79.2029ZM89.9018 30.1871C88.9882 30.1871 88.2013 29.992 87.5413 29.6016C86.8853 29.2071 86.3782 28.6538 86.02 27.9414C85.6658 27.225 85.4888 26.3859 85.4888 25.424C85.4888 24.4742 85.6658 23.6371 86.02 22.9126C86.3782 22.1882 86.8772 21.6228 87.5172 21.2163C88.1611 20.8098 88.9137 20.6065 89.775 20.6065C90.2982 20.6065 90.8053 20.6931 91.2963 20.8661C91.7873 21.0392 92.228 21.3108 92.6184 21.6811C93.0088 22.0514 93.3166 22.5323 93.542 23.1239C93.7674 23.7115 93.8801 24.4259 93.8801 25.267V25.907H86.509V24.5547H92.1113C92.1113 24.0798 92.0147 23.6592 91.8215 23.293C91.6283 22.9227 91.3567 22.6309 91.0065 22.4176C90.6604 22.2043 90.2539 22.0977 89.787 22.0977C89.2799 22.0977 88.8372 22.2224 88.4589 22.4719C88.0846 22.7174 87.7949 23.0394 87.5896 23.4379C87.3884 23.8323 87.2878 24.2609 87.2878 24.7237V25.7802C87.2878 26.4 87.3964 26.9272 87.6138 27.3619C87.8351 27.7965 88.143 28.1286 88.5374 28.358C88.9318 28.5833 89.3926 28.696 89.9199 28.696C90.262 28.696 90.5739 28.6477 90.8556 28.5511C91.1373 28.4505 91.3808 28.3016 91.5861 28.1044C91.7913 27.9072 91.9483 27.6637 92.0569 27.3739L93.7654 27.6818C93.6286 28.1849 93.383 28.6256 93.0289 29.0039C92.6787 29.3782 92.238 29.67 91.7068 29.8793C91.1796 30.0845 90.5779 30.1871 89.9018 30.1871ZM103.341 22.9911L101.705 23.2809C101.637 23.0716 101.528 22.8724 101.379 22.6832C101.234 22.4941 101.037 22.3391 100.788 22.2184C100.538 22.0977 100.226 22.0373 99.852 22.0373C99.3409 22.0373 98.9143 22.152 98.5722 22.3814C98.2301 22.6068 98.059 22.8986 98.059 23.2567C98.059 23.5666 98.1737 23.8162 98.4031 24.0053C98.6325 24.1945 99.0028 24.3494 99.5139 24.4702L100.987 24.8082C101.84 25.0054 102.476 25.3093 102.895 25.7198C103.313 26.1303 103.522 26.6636 103.522 27.3196C103.522 27.875 103.361 28.37 103.039 28.8047C102.722 29.2353 102.277 29.5734 101.705 29.8189C101.138 30.0644 100.48 30.1871 99.7313 30.1871C98.6929 30.1871 97.8457 29.9658 97.1897 29.5231C96.5337 29.0763 96.1312 28.4425 95.9823 27.6214L97.727 27.3558C97.8357 27.8106 98.059 28.1547 98.3971 28.3881C98.7352 28.6175 99.1759 28.7322 99.7192 28.7322C100.311 28.7322 100.784 28.6095 101.138 28.364C101.492 28.1145 101.669 27.8106 101.669 27.4524C101.669 27.1626 101.56 26.9192 101.343 26.7219C101.13 26.5247 100.802 26.3758 100.359 26.2752L98.7895 25.9311C97.9242 25.7339 97.2843 25.42 96.8698 24.9893C96.4592 24.5587 96.254 24.0134 96.254 23.3533C96.254 22.806 96.4069 22.3271 96.7128 21.9165C97.0187 21.506 97.4413 21.1861 97.9805 20.9567C98.5198 20.7232 99.1376 20.6065 99.8339 20.6065C100.836 20.6065 101.625 20.8239 102.2 21.2585C102.776 21.6892 103.156 22.2667 103.341 22.9911ZM111.891 26.1545V20.7273H113.702V30H111.927V28.3942H111.831C111.617 28.8892 111.275 29.3017 110.804 29.6317C110.338 29.9577 109.756 30.1207 109.06 30.1207C108.464 30.1207 107.937 29.9899 107.478 29.7283C107.023 29.4627 106.665 29.0703 106.403 28.5511C106.146 28.032 106.017 27.39 106.017 26.6254V20.7273H107.822V26.408C107.822 27.0399 107.997 27.543 108.347 27.9173C108.697 28.2915 109.152 28.4787 109.712 28.4787C110.05 28.4787 110.386 28.3942 110.72 28.2251C111.058 28.0561 111.338 27.8005 111.559 27.4585C111.784 27.1164 111.895 26.6817 111.891 26.1545ZM116.637 30V20.7273H118.37V22.2365H118.485C118.678 21.7254 118.994 21.3269 119.433 21.0412C119.871 20.7514 120.396 20.6065 121.008 20.6065C121.628 20.6065 122.147 20.7514 122.566 21.0412C122.988 21.331 123.3 21.7294 123.501 22.2365H123.598C123.819 21.7415 124.172 21.3471 124.654 21.0533C125.137 20.7554 125.713 20.6065 126.381 20.6065C127.222 20.6065 127.908 20.8701 128.44 21.3974C128.975 21.9246 129.243 22.7195 129.243 23.782V30H127.438V23.951C127.438 23.3232 127.266 22.8684 126.924 22.5866C126.582 22.3049 126.174 22.1641 125.699 22.1641C125.111 22.1641 124.654 22.3452 124.329 22.7074C124.003 23.0656 123.84 23.5264 123.84 24.0898V30H122.041V23.8363C122.041 23.3332 121.884 22.9287 121.57 22.6229C121.256 22.317 120.847 22.1641 120.344 22.1641C120.002 22.1641 119.686 22.2546 119.396 22.4357C119.111 22.6128 118.879 22.8603 118.702 23.1783C118.529 23.4962 118.442 23.8645 118.442 24.283V30H116.637ZM136.168 30.1871C135.255 30.1871 134.468 29.992 133.808 29.6016C133.152 29.2071 132.645 28.6538 132.287 27.9414C131.932 27.225 131.755 26.3859 131.755 25.424C131.755 24.4742 131.932 23.6371 132.287 22.9126C132.645 22.1882 133.144 21.6228 133.784 21.2163C134.428 20.8098 135.18 20.6065 136.042 20.6065C136.565 20.6065 137.072 20.6931 137.563 20.8661C138.054 21.0392 138.495 21.3108 138.885 21.6811C139.275 22.0514 139.583 22.5323 139.809 23.1239C140.034 23.7115 140.147 24.4259 140.147 25.267V25.907H132.776V24.5547H138.378C138.378 24.0798 138.281 23.6592 138.088 23.293C137.895 22.9227 137.623 22.6309 137.273 22.4176C136.927 22.2043 136.52 22.0977 136.054 22.0977C135.547 22.0977 135.104 22.2224 134.725 22.4719C134.351 22.7174 134.061 23.0394 133.856 23.4379C133.655 23.8323 133.554 24.2609 133.554 24.7237V25.7802C133.554 26.4 133.663 26.9272 133.88 27.3619C134.102 27.7965 134.41 28.1286 134.804 28.358C135.198 28.5833 135.659 28.696 136.186 28.696C136.529 28.696 136.84 28.6477 137.122 28.5511C137.404 28.4505 137.647 28.3016 137.853 28.1044C138.058 27.9072 138.215 27.6637 138.323 27.3739L140.032 27.6818C139.895 28.1849 139.65 28.6256 139.295 29.0039C138.945 29.3782 138.505 29.67 137.973 29.8793C137.446 30.0845 136.844 30.1871 136.168 30.1871Z" fill="white"/>
</svg>
