<svg width="97" height="17" viewBox="0 0 97 17" fill="none" xmlns="http://www.w3.org/2000/svg">
<path d="M7.29961 3.88423C7.23522 3.31274 6.96959 2.87003 6.50274 2.55611C6.03588 2.23816 5.44828 2.07919 4.73995 2.07919C4.23285 2.07919 3.79417 2.15968 3.4239 2.32067C3.05363 2.47763 2.76587 2.69496 2.56062 2.97266C2.35939 3.24633 2.25877 3.55824 2.25877 3.90838C2.25877 4.20218 2.32719 4.45573 2.46403 4.66903C2.60489 4.88234 2.78801 5.06143 3.01339 5.20632C3.24279 5.34718 3.48829 5.46591 3.74989 5.5625C4.01149 5.65507 4.26303 5.73153 4.50451 5.7919L5.7119 6.10582C6.10631 6.20241 6.51078 6.33321 6.92532 6.49822C7.33986 6.66323 7.72421 6.88056 8.07837 7.15021C8.43254 7.41986 8.71829 7.75391 8.93562 8.15234C9.15697 8.55078 9.26765 9.0277 9.26765 9.5831C9.26765 10.2834 9.08654 10.9052 8.72433 11.4485C8.36614 11.9918 7.84495 12.4205 7.16076 12.7344C6.4806 13.0483 5.65756 13.2053 4.69166 13.2053C3.76599 13.2053 2.96509 13.0584 2.28896 12.7646C1.61282 12.4708 1.08358 12.0542 0.701244 11.5149C0.318905 10.9716 0.107612 10.3277 0.0673659 9.5831H1.93881C1.97504 10.0298 2.11992 10.4021 2.37347 10.6999C2.63105 10.9937 2.95906 11.2131 3.35749 11.358C3.75996 11.4988 4.20065 11.5692 4.67958 11.5692C5.20681 11.5692 5.67568 11.4867 6.08619 11.3217C6.50072 11.1527 6.82672 10.9193 7.06417 10.6214C7.30162 10.3196 7.42035 9.96745 7.42035 9.56499C7.42035 9.19875 7.31571 8.89891 7.10643 8.66548C6.90117 8.43205 6.62146 8.23887 6.2673 8.08594C5.91715 7.933 5.52073 7.79818 5.07802 7.68146L3.61708 7.28303C2.62703 7.01338 1.84222 6.61695 1.26268 6.09375C0.687158 5.57055 0.399397 4.87831 0.399397 4.01704C0.399397 3.30469 0.592579 2.68288 0.978943 2.15163C1.36531 1.62038 1.88851 1.20786 2.54854 0.914062C3.20858 0.61624 3.95314 0.467329 4.78221 0.467329C5.61933 0.467329 6.35785 0.614228 6.99776 0.908025C7.6417 1.20182 8.14881 1.6063 8.51907 2.12145C8.88934 2.63258 9.08252 3.22017 9.09862 3.88423H7.29961ZM15.8583 13.1871C14.9448 13.1871 14.1579 12.992 13.4979 12.6016C12.8419 12.2071 12.3348 11.6538 11.9766 10.9414C11.6224 10.225 11.4454 9.38589 11.4454 8.42401C11.4454 7.47419 11.6224 6.63707 11.9766 5.91264C12.3348 5.18821 12.8338 4.62275 13.4738 4.21626C14.1177 3.80978 14.8703 3.60653 15.7316 3.60653C16.2548 3.60653 16.7619 3.69306 17.2529 3.86612C17.7439 4.03918 18.1846 4.31084 18.575 4.68111C18.9654 5.05137 19.2732 5.53232 19.4986 6.12393C19.724 6.71153 19.8367 7.4259 19.8367 8.26705V8.90696H12.4656V7.55469H18.0679C18.0679 7.07978 17.9713 6.65921 17.7781 6.29297C17.5849 5.9227 17.3133 5.63092 16.9631 5.41761C16.617 5.20431 16.2105 5.09766 15.7436 5.09766C15.2365 5.09766 14.7938 5.22242 14.4155 5.47195C14.0412 5.71745 13.7515 6.03942 13.5462 6.43785C13.345 6.83227 13.2444 7.26089 13.2444 7.72372V8.78018C13.2444 9.39998 13.353 9.9272 13.5704 10.3619C13.7917 10.7965 14.0996 11.1286 14.494 11.358C14.8884 11.5833 15.3492 11.696 15.8765 11.696C16.2186 11.696 16.5305 11.6477 16.8122 11.5511C17.0939 11.4505 17.3374 11.3016 17.5427 11.1044C17.7479 10.9072 17.9049 10.6637 18.0135 10.3739L19.722 10.6818C19.5851 11.1849 19.3396 11.6256 18.9855 12.0039C18.6353 12.3782 18.1946 12.67 17.6634 12.8793C17.1362 13.0845 16.5345 13.1871 15.8583 13.1871ZM26.3459 13.1871C25.4323 13.1871 24.6455 12.992 23.9854 12.6016C23.3294 12.2071 22.8223 11.6538 22.4641 10.9414C22.11 10.225 21.9329 9.38589 21.9329 8.42401C21.9329 7.47419 22.11 6.63707 22.4641 5.91264C22.8223 5.18821 23.3214 4.62275 23.9613 4.21626C24.6052 3.80978 25.3578 3.60653 26.2191 3.60653C26.7423 3.60653 27.2494 3.69306 27.7404 3.86612C28.2314 4.03918 28.6721 4.31084 29.0625 4.68111C29.4529 5.05137 29.7608 5.53232 29.9862 6.12393C30.2115 6.71153 30.3242 7.4259 30.3242 8.26705V8.90696H22.9531V7.55469H28.5554C28.5554 7.07978 28.4588 6.65921 28.2656 6.29297C28.0725 5.9227 27.8008 5.63092 27.4506 5.41761C27.1045 5.20431 26.698 5.09766 26.2312 5.09766C25.7241 5.09766 25.2814 5.22242 24.9031 5.47195C24.5288 5.71745 24.239 6.03942 24.0337 6.43785C23.8325 6.83227 23.7319 7.26089 23.7319 7.72372V8.78018C23.7319 9.39998 23.8406 9.9272 24.0579 10.3619C24.2792 10.7965 24.5871 11.1286 24.9815 11.358C25.376 11.5833 25.8368 11.696 26.364 11.696C26.7061 11.696 27.018 11.6477 27.2997 11.5511C27.5814 11.4505 27.8249 11.3016 28.0302 11.1044C28.2354 10.9072 28.3924 10.6637 28.5011 10.3739L30.2095 10.6818C30.0727 11.1849 29.8272 11.6256 29.473 12.0039C29.1229 12.3782 28.6822 12.67 28.1509 12.8793C27.6237 13.0845 27.022 13.1871 26.3459 13.1871ZM37.846 16.4773V3.72727H39.6088V5.23047H39.7597C39.8644 5.03729 40.0153 4.81392 40.2125 4.56037C40.4097 4.30682 40.6834 4.08546 41.0335 3.89631C41.3836 3.70312 41.8465 3.60653 42.422 3.60653C43.1706 3.60653 43.8387 3.79569 44.4263 4.17401C45.0139 4.55232 45.4747 5.09766 45.8087 5.81001C46.1468 6.52237 46.3158 7.37962 46.3158 8.38175C46.3158 9.38388 46.1488 10.2431 45.8148 10.9595C45.4807 11.6719 45.0219 12.2212 44.4383 12.6076C43.8548 12.9899 43.1887 13.1811 42.4401 13.1811C41.8767 13.1811 41.4158 13.0865 41.0577 12.8974C40.7035 12.7082 40.4258 12.4869 40.2246 12.2333C40.0233 11.9798 39.8684 11.7544 39.7597 11.5572H39.651V16.4773H37.846ZM39.6148 8.36364C39.6148 9.01562 39.7094 9.58712 39.8986 10.0781C40.0877 10.5691 40.3614 10.9535 40.7196 11.2312C41.0778 11.5049 41.5165 11.6417 42.0356 11.6417C42.5749 11.6417 43.0257 11.4988 43.3879 11.2131C43.7501 10.9233 44.0238 10.5309 44.2089 10.0359C44.3981 9.54084 44.4927 8.98343 44.4927 8.36364C44.4927 7.75189 44.4001 7.20253 44.215 6.71555C44.0339 6.22857 43.7602 5.84422 43.3939 5.5625C43.0317 5.28078 42.579 5.13991 42.0356 5.13991C41.5124 5.13991 41.0697 5.27474 40.7075 5.54439C40.3493 5.81404 40.0777 6.19034 39.8925 6.6733C39.7074 7.15625 39.6148 7.7197 39.6148 8.36364ZM48.8482 13V3.72727H50.5929V5.20028H50.6895C50.8585 4.70123 51.1563 4.30883 51.5829 4.02308C52.0136 3.73331 52.5005 3.58842 53.0439 3.58842C53.1565 3.58842 53.2894 3.59245 53.4423 3.6005C53.5993 3.60855 53.722 3.61861 53.8105 3.63068V5.35724C53.7381 5.33712 53.6093 5.31499 53.4242 5.29084C53.2391 5.26267 53.0539 5.24858 52.8688 5.24858C52.4422 5.24858 52.0618 5.33913 51.7278 5.52024C51.3978 5.69732 51.1362 5.94484 50.943 6.26278C50.7498 6.5767 50.6532 6.9349 50.6532 7.33736V13H48.8482ZM59.4565 13.1871C58.5872 13.1871 57.8285 12.9879 57.1805 12.5895C56.5326 12.1911 56.0295 11.6336 55.6713 10.9173C55.3131 10.2009 55.134 9.36375 55.134 8.40589C55.134 7.44401 55.3131 6.60286 55.6713 5.88246C56.0295 5.16205 56.5326 4.60263 57.1805 4.20419C57.8285 3.80575 58.5872 3.60653 59.4565 3.60653C60.3258 3.60653 61.0844 3.80575 61.7324 4.20419C62.3804 4.60263 62.8834 5.16205 63.2416 5.88246C63.5998 6.60286 63.7789 7.44401 63.7789 8.40589C63.7789 9.36375 63.5998 10.2009 63.2416 10.9173C62.8834 11.6336 62.3804 12.1911 61.7324 12.5895C61.0844 12.9879 60.3258 13.1871 59.4565 13.1871ZM59.4625 11.6719C60.026 11.6719 60.4928 11.523 60.8631 11.2251C61.2333 10.9273 61.507 10.5309 61.6841 10.0359C61.8652 9.54084 61.9558 8.9955 61.9558 8.39986C61.9558 7.80824 61.8652 7.26491 61.6841 6.76989C61.507 6.27083 61.2333 5.87038 60.8631 5.56854C60.4928 5.26669 60.026 5.11577 59.4625 5.11577C58.895 5.11577 58.4242 5.26669 58.0499 5.56854C57.6796 5.87038 57.4039 6.27083 57.2228 6.76989C57.0457 7.26491 56.9572 7.80824 56.9572 8.39986C56.9572 8.9955 57.0457 9.54084 57.2228 10.0359C57.4039 10.5309 57.6796 10.9273 58.0499 11.2251C58.4242 11.523 58.895 11.6719 59.4625 11.6719ZM66.3037 3.72727H68.1088V13.6037C68.1088 14.2235 67.9961 14.7467 67.7707 15.1733C67.5494 15.5999 67.2193 15.9239 66.7807 16.1452C66.346 16.3666 65.8087 16.4773 65.1688 16.4773C65.1044 16.4773 65.044 16.4773 64.9877 16.4773C64.9273 16.4773 64.8649 16.4753 64.8005 16.4712V14.9197C64.8569 14.9197 64.9072 14.9197 64.9515 14.9197C64.9917 14.9197 65.038 14.9197 65.0903 14.9197C65.5169 14.9197 65.8248 14.805 66.014 14.5756C66.2071 14.3503 66.3037 14.0223 66.3037 13.5916V3.72727ZM67.1972 2.29652C66.8833 2.29652 66.6136 2.19188 66.3883 1.9826C66.1669 1.76929 66.0562 1.51574 66.0562 1.22195C66.0562 0.924124 66.1669 0.670573 66.3883 0.461292C66.6136 0.247987 66.8833 0.141335 67.1972 0.141335C67.5111 0.141335 67.7788 0.247987 68.0001 0.461292C68.2255 0.670573 68.3382 0.924124 68.3382 1.22195C68.3382 1.51574 68.2255 1.76929 68.0001 1.9826C67.7788 2.19188 67.5111 2.29652 67.1972 2.29652ZM75.0436 13.1871C74.13 13.1871 73.3432 12.992 72.6831 12.6016C72.0271 12.2071 71.52 11.6538 71.1618 10.9414C70.8077 10.225 70.6306 9.38589 70.6306 8.42401C70.6306 7.47419 70.8077 6.63707 71.1618 5.91264C71.52 5.18821 72.0191 4.62275 72.659 4.21626C73.3029 3.80978 74.0555 3.60653 74.9168 3.60653C75.44 3.60653 75.9471 3.69306 76.4381 3.86612C76.9291 4.03918 77.3698 4.31084 77.7602 4.68111C78.1506 5.05137 78.4585 5.53232 78.6839 6.12393C78.9092 6.71153 79.0219 7.4259 79.0219 8.26705V8.90696H71.6508V7.55469H77.2531C77.2531 7.07978 77.1565 6.65921 76.9633 6.29297C76.7701 5.9227 76.4985 5.63092 76.1483 5.41761C75.8022 5.20431 75.3957 5.09766 74.9289 5.09766C74.4218 5.09766 73.9791 5.22242 73.6008 5.47195C73.2265 5.71745 72.9367 6.03942 72.7314 6.43785C72.5302 6.83227 72.4296 7.26089 72.4296 7.72372V8.78018C72.4296 9.39998 72.5383 9.9272 72.7556 10.3619C72.9769 10.7965 73.2848 11.1286 73.6792 11.358C74.0736 11.5833 74.5345 11.696 75.0617 11.696C75.4038 11.696 75.7157 11.6477 75.9974 11.5511C76.2791 11.4505 76.5226 11.3016 76.7279 11.1044C76.9331 10.9072 77.0901 10.6637 77.1988 10.3739L78.9072 10.6818C78.7704 11.1849 78.5249 11.6256 78.1707 12.0039C77.8206 12.3782 77.3799 12.67 76.8486 12.8793C76.3214 13.0845 75.7197 13.1871 75.0436 13.1871ZM85.4406 13.1871C84.5431 13.1871 83.7703 12.9839 83.1224 12.5774C82.4784 12.1669 81.9834 11.6014 81.6373 10.881C81.2912 10.1606 81.1181 9.33558 81.1181 8.40589C81.1181 7.46413 81.2952 6.63305 81.6494 5.91264C82.0035 5.18821 82.5026 4.62275 83.1465 4.21626C83.7905 3.80978 84.5491 3.60653 85.4225 3.60653C86.1268 3.60653 86.7546 3.73733 87.306 3.99893C87.8573 4.25651 88.3021 4.61873 88.6401 5.08558C88.9822 5.55244 89.1855 6.09777 89.2499 6.72159H87.4931C87.3965 6.28693 87.1752 5.91264 86.8291 5.59872C86.487 5.2848 86.0282 5.12784 85.4526 5.12784C84.9496 5.12784 84.5089 5.26065 84.1305 5.52628C83.7563 5.78788 83.4645 6.16217 83.2552 6.64915C83.0459 7.1321 82.9413 7.7036 82.9413 8.36364C82.9413 9.03977 83.0439 9.62334 83.2492 10.1143C83.4544 10.6054 83.7442 10.9857 84.1185 11.2553C84.4968 11.525 84.9415 11.6598 85.4526 11.6598C85.7947 11.6598 86.1046 11.5974 86.3823 11.4727C86.664 11.3439 86.8995 11.1607 87.0886 10.9233C87.2818 10.6858 87.4167 10.4001 87.4931 10.0661H89.2499C89.1855 10.6657 88.9903 11.201 88.6643 11.6719C88.3383 12.1428 87.9016 12.513 87.3543 12.7827C86.8109 13.0523 86.173 13.1871 85.4406 13.1871ZM96.0187 3.72727V5.17614H90.9537V3.72727H96.0187ZM92.312 1.50568H94.117V10.2773C94.117 10.6275 94.1694 10.8911 94.274 11.0682C94.3786 11.2412 94.5135 11.36 94.6785 11.4244C94.8475 11.4847 95.0306 11.5149 95.2278 11.5149C95.3727 11.5149 95.4995 11.5049 95.6082 11.4847C95.7168 11.4646 95.8013 11.4485 95.8617 11.4364L96.1877 12.9276C96.0831 12.9678 95.9341 13.008 95.741 13.0483C95.5478 13.0926 95.3063 13.1167 95.0165 13.1207C94.5416 13.1288 94.0989 13.0443 93.6884 12.8672C93.2779 12.6901 92.9459 12.4164 92.6923 12.0462C92.4388 11.6759 92.312 11.2111 92.312 10.6516V1.50568Z" fill="white"/>
</svg>
